<svg xmlns="http://www.w3.org/2000/svg" viewBox="0 0 367.63 246.12"><defs><style>.cls-1{font-size:72px;font-family:OpenSans-Bold, Open Sans;font-weight:700;}.cls-1,.cls-4,.cls-5,.cls-7{fill:#fff;}.cls-2{font-family:OpenSans-Regular, Open Sans;font-weight:400;}.cls-3,.cls-6{fill:none;}.cls-4{opacity:0.5;isolation:isolate;}.cls-6,.cls-7{stroke:#fff;}.cls-6{stroke-linecap:round;stroke-width:5px;}</style></defs><title>Recurso 1</title><g id="Capa_2" data-name="Capa 2"><g id="Bandera"><text class="cls-1" transform="translate(0 228.68)">pirca<tspan class="cls-2" x="180.74" y="0">pedia</tspan></text><path class="cls-3" d="M227.82,121.14c-.36.06-.71.12-1.09.15C227.11,121.26,227.46,121.2,227.82,121.14Z"/><path class="cls-4" d="M235.82,108.11c3,5.25.07,11.51-7.44,13-.18,0-.38,0-.56.08-.36.06-.71.12-1.09.15s-.61,0-.91,0-.53,0-.81,0l-44.21.17a15.59,15.59,0,0,0-13.59,8l-22.68,37.58H252.6a10,10,0,0,0,8.6-15Z"/><path class="cls-5" d="M227.82,121.14c.18,0,.38,0,.56-.08,7.47-1.45,10.29-7.73,7.35-13a.08.08,0,0,0-.08-.08l-22.84-40.2-1.76-3a35.51,35.51,0,0,1-48.58-9l-7,12.08-28.66,49.61-20.06,34.72a9.93,9.93,0,0,0,8.6,14.9h29.06l22.68-37.58a15.61,15.61,0,0,1,13.59-8l44.13-.08c.34,0,.65,0,1,0s.62,0,.91,0S227.46,121.2,227.82,121.14Z"/><path d="M225.82,121.34c.3,0,.62,0,.91,0C226.44,121.32,226.12,121.32,225.82,121.34Z"/><path d="M228.38,121.06c-.18,0-.38,0-.56.08C228,121.11,228.2,121.1,228.38,121.06Z"/><path class="cls-6" d="M214.32,56.89a32.38,32.38,0,1,0-.42.41l35.54,35.54m-19-24.46,23,23L248,96.81l-23-23"/><path class="cls-5" d="M204.11,18l-1.25-.15a9.78,9.78,0,0,1-2.77-.66.73.73,0,0,1-.19-.11,1.81,1.81,0,0,1-.27-.32,6.66,6.66,0,0,1-.34-.66c-.08-.18-.18-.37-.21-.43a1.35,1.35,0,0,0-.89-.76l-.45-.12c-.52-.15-1-.27-1.7-.43-.46-.11-.59-.14-.89-.19l-.9-.19-.6-.13s0,0,0,0a1.32,1.32,0,0,0,0-.36c0-.18-.13-.25-.26-.16a1.25,1.25,0,0,0-.37.8c0,.07,0,.22-.06.32-.3,1.62-.87,4.64-1.55,8.3-.11.6-.25,1.34-.3,1.65s-.2,1.06-.32,1.66-.2,1.1-.21,1.12a.59.59,0,0,0,.19.3c.06,0,.07,0,.11,0s.1-.06.16-.17a4.58,4.58,0,0,0,.34-1.28l.7-3.74c0-.22.09-.46.1-.53s0-.22.06-.32.05-.25.06-.32c.12-.6.2-1,.21-1l.77.08.25,0c.39,0,.93.12,1.34.2a8.84,8.84,0,0,1,1.13.28l.25.09c.16,0,.39.15.61.24s.31.32.58.85.51.88.81,1a1,1,0,0,0,.38.13.89.89,0,0,1,.2.06l.7.2a21.92,21.92,0,0,0,2.2.4l.84.14.29.05,0-.09a3.49,3.49,0,0,0,.36-1.22c0-.12.08-.38.11-.57s.08-.39.09-.45,0-.2.07-.33.11-.51.18-.87.21-1,.3-1.48.17-.84.17-.85Z"/><path class="cls-7" d="M191.62,61.8a27,27,0,0,0,22.59-12.23L205.5,34.35a16.93,16.93,0,0,0-29.51,0l-7.85,13.73A26.94,26.94,0,0,0,191.62,61.8Z"/></g></g></svg>